<svg width="512" height="512" viewBox="0 0 512 512" fill="none" xmlns="http://www.w3.org/2000/svg">
<g clip-path="url(#clip0_448_120)">
<path d="M437.788 0H74.2125C33.2261 0 0 33.2261 0 74.2125V437.788C0 478.774 33.2261 512 74.2125 512H437.788C478.774 512 512 478.774 512 437.788V74.2125C512 33.2261 478.774 0 437.788 0Z" fill="#45D2BA"/>
<path d="M423.822 454.102C419.464 454.074 415.922 452.716 412.619 450.707C410.251 449.276 409.554 446.477 410.784 444.11C411.986 441.788 414.738 440.797 417.262 441.816C417.83 442.045 418.353 442.366 418.895 442.632C423.905 445.082 426.437 444.357 429.383 439.549C430.098 438.384 430.676 437.127 431.319 435.916C431.566 435.439 431.759 434.934 432.043 434.484C433.429 432.246 436.081 431.429 438.43 432.484C440.669 433.493 442.063 436.044 441.192 438.366C439.228 443.559 436.567 448.358 431.842 451.634C429.318 453.377 426.501 454.203 423.831 454.093L423.822 454.102Z" fill="#FDFFFE"/>
<path d="M399.736 428.226C399.736 430.236 398.855 431.759 397.093 432.704C395.323 433.649 393.543 433.53 391.9 432.392C391.221 431.924 390.652 431.282 390.093 430.658C384.385 424.299 378.99 417.674 373.742 410.94C373.319 410.398 372.897 409.848 372.604 409.233C371.567 407.077 372.209 404.517 374.109 403.085C375.999 401.654 378.65 401.718 380.44 403.296C380.954 403.746 381.376 404.296 381.798 404.838C387.019 411.499 392.368 418.06 398.029 424.364C399.369 425.85 399.727 426.722 399.736 428.226Z" fill="#FDFFFE"/>
<path d="M361.042 390.194C358.574 390.203 357.244 389.184 356.106 387.725C352.454 383.037 348.775 378.357 345.077 373.696C343.324 371.484 341.508 369.328 339.7 367.163C338.296 365.474 337.975 363.593 338.792 361.602C340.058 358.51 344.077 357.629 346.646 359.85C347.334 360.446 347.903 361.18 348.481 361.887C353.757 368.218 358.868 374.668 363.869 381.211C364.382 381.88 364.905 382.532 365.208 383.321C366.511 386.652 364.08 390.203 361.033 390.184L361.042 390.194Z" fill="#FDFFFE"/>
<path d="M440.77 410.756C440.77 410.27 441.017 409.481 441.329 408.692C443.21 403.929 445.339 399.296 447.927 394.873C449.854 391.588 451.634 388.23 453.248 384.78C454.019 383.137 455.341 382.183 456.992 381.706C459.158 381.082 460.681 382.367 461.901 383.826C462.828 384.936 463.369 386.193 462.608 387.909C460.974 391.579 459.479 395.295 457.387 398.745C454.808 402.993 452.698 407.471 450.863 412.086C450.606 412.72 450.358 413.371 449.991 413.949C448.798 415.839 446.514 416.683 444.412 416.069C442.146 415.408 440.724 413.472 440.77 410.756Z" fill="#FDFFFE"/>
<path d="M133.579 321.844C134.946 321.881 136.322 321.789 137.662 322.211C140.075 322.982 141.543 325.212 141.231 327.662C140.919 330.112 138.91 332.167 136.405 331.947C129.083 331.323 123.036 334.342 117.246 338.232C116.108 338.994 115.016 339.847 113.851 340.572C111.493 342.031 108.529 341.544 107.107 339.526C105.355 337.021 105.593 334.25 107.997 332.415C113.741 328.038 119.742 324.102 127 322.606C129.174 322.156 131.349 321.78 133.579 321.844Z" fill="#FDFFFE"/>
<path d="M254.137 355.005C251.999 355.133 250.522 353.849 249.66 352.124C248.944 350.702 248.926 347.921 250.761 346.444C252.421 345.104 254.11 343.792 255.761 342.444C261.349 337.865 267.029 333.387 272.947 329.249C275.406 327.533 278.278 328.01 279.93 330.029C281.82 332.341 281.609 335.277 279.37 337.158C278.324 338.039 277.122 338.737 276.012 339.535C269.873 343.939 264.102 348.821 258.156 353.473C256.982 354.39 255.761 355.106 254.156 355.005H254.137Z" fill="#FDFFFE"/>
<path d="M211.627 375.77C208.718 375.953 206.589 375.724 204.47 375.476C201.469 375.127 199.524 372.787 199.781 370.016C200.047 367.163 202.249 365.218 205.305 365.456C208.975 365.741 212.608 365.768 216.233 365.062C220.6 364.208 224.766 362.777 228.739 360.786C230.978 359.666 233.685 360.116 235.199 361.878C236.658 363.575 236.795 366.135 235.529 368.053C234.96 368.915 234.153 369.466 233.244 369.897C226.152 373.283 218.765 375.549 211.617 375.77H211.627Z" fill="#FDFFFE"/>
<path d="M179.282 363.915C178.227 363.988 177.31 363.364 176.291 362.373C173.942 360.088 171.364 358.033 168.795 355.987C168.198 355.51 167.703 354.978 167.152 354.5C163.996 351.766 161.124 348.711 157.949 346.004C156.903 345.114 155.866 344.361 155.187 343.095C154.141 341.168 154.481 338.379 156.215 336.856C158.004 335.287 160.564 335.085 162.564 336.489C163.124 336.883 163.61 337.369 164.115 337.837C170.3 343.526 176.346 349.353 182.916 354.61C185.026 356.299 185.66 358.372 184.953 360.455C184.182 362.731 182.209 364.006 179.282 363.905V363.915Z" fill="#FDFFFE"/>
<path d="M85.4984 355.785C81.874 354.895 78.3047 354.06 75.0749 351.885C70.6247 348.894 66.5324 345.49 62.596 341.893C61.2564 340.673 60.1462 339.159 60.0085 337.204C59.8434 334.864 60.66 333.351 62.6419 332.332C64.5229 331.359 66.771 331.662 68.3675 333.139C69.8815 334.543 71.3221 336.011 72.8452 337.406C75.1024 339.471 77.4606 341.416 80.0848 343.003C82.5897 344.517 85.1956 345.673 88.2328 345.728C90.49 345.774 92.1507 347.261 92.7288 349.344C93.2977 351.417 92.5545 353.72 90.8111 354.803C89.2054 355.794 87.3702 355.868 85.4984 355.785Z" fill="#FDFFFE"/>
<path d="M32.968 286.94C34.693 286.968 36.0601 287.702 37.0236 289.115C37.5833 289.931 38.088 290.785 38.5834 291.638C42.4189 298.226 46.5479 304.631 50.8696 310.916C51.3467 311.604 51.8239 312.302 52.2001 313.045C53.347 315.339 52.7139 317.899 50.6861 319.358C48.6124 320.853 45.8322 320.569 44.0338 318.66C43.7218 318.33 43.4557 317.954 43.1896 317.578C40.1249 313.127 37.0786 308.659 34.2709 304.034C32.4541 301.043 30.6649 298.034 28.8665 295.033C28.2609 294.033 27.8663 292.987 27.9122 291.794C28.0131 289.032 30.1969 286.913 32.9588 286.94H32.968Z" fill="#FDFFFE"/>
<path d="M324.689 348.481C323.487 348.545 322.331 348.142 321.422 347.27C320.22 346.123 318.917 345.114 317.688 344.003C312.687 339.489 307.338 335.443 300.896 333.103C298.263 332.148 297.024 330.405 297.098 328.01C297.217 324.074 300.878 322.532 303.695 323.386C306.484 324.23 309.072 325.551 311.586 326.964C317.678 330.396 322.973 334.883 328.029 339.672C329.662 341.223 330.231 343.123 329.387 345.306C328.643 347.233 326.863 348.444 324.689 348.481Z" fill="#FDFFFE"/>
<path d="M469.792 366.41C465.562 366.355 463.002 363.07 464.323 359.896C467.241 352.913 471.994 347.83 479.903 346.618C481.775 346.334 483.684 346.04 485.583 346.518C487.639 347.031 488.896 348.38 489.336 350.399C489.767 352.353 489.088 353.996 487.574 355.299C486.923 355.858 486.17 356.216 485.308 356.308C484.858 356.354 484.39 356.39 483.941 356.381C479.601 356.262 476.518 358.235 474.481 362.006C474.086 362.74 473.701 363.492 473.233 364.19C472.223 365.695 470.783 366.419 469.783 366.419L469.792 366.41Z" fill="#FDFFFE"/>
<path d="M49.5024 184.201C51.3834 181.054 53.292 177.925 55.751 175.163C59.6965 170.731 64.3761 167.391 70.0283 165.538C77.3046 163.152 84.6909 160.996 92.3526 160.592C103.079 160.023 113.356 161.913 122.632 167.767C126.128 169.969 129.642 172.144 132.652 174.998C137.368 179.475 139.46 184.944 138.093 191.385C137.065 196.221 133.946 199.368 129.275 201.084C126.009 202.286 122.706 202.029 119.375 201.8C118.76 201.763 118.301 201.378 117.787 201.038C115.218 199.331 113.145 197.111 111.337 194.679C109.502 192.211 107.199 190.752 104.18 190.174C100.803 189.523 97.4634 188.66 94.0317 188.403C88.6273 187.999 83.7367 189.385 79.4333 192.697C78.0845 193.734 76.9559 194.973 76.4054 196.643C75.7814 198.524 76.0842 199.662 77.589 200.928C78.6993 201.864 79.9013 202.69 81.2501 203.249C84.6818 204.672 88.0951 206.158 91.692 207.149C97.8763 208.856 104.042 210.654 110.007 213.021C118.999 216.591 127.44 221.114 134.404 228.014C135.873 229.473 137.185 231.061 138.295 232.813C139.91 235.373 140.809 238.034 140.635 241.209C140.203 248.834 140.112 256.486 139.552 264.111C139.479 265.139 139.203 266.038 138.708 266.919C136.698 270.498 134.019 273.516 130.863 276.113C122.641 282.875 113.218 286.959 102.73 288.665C98.1149 289.418 93.4812 289.812 88.8108 289.776C82.5255 289.73 76.598 287.995 70.7624 285.848C68.9823 285.197 67.2848 284.325 65.3946 283.894C63.9082 283.554 62.8621 282.279 61.5317 281.545C55.4941 278.196 50.4108 273.709 46.4102 268.093C45.2082 266.405 44.5109 264.295 43.8778 262.258C42.795 258.78 42.428 255.257 42.9418 251.623C43.9053 244.778 47.6031 241.264 54.3472 240.227C61.1004 239.181 68.4317 243.035 70.6981 249.339C73.4416 256.973 78.9103 260.891 86.6545 261.863C92.3801 262.588 98.0965 262.313 103.684 260.606C106.483 259.753 108.96 258.193 111.658 257.129C112.264 256.89 112.64 256.413 112.796 255.78C113.594 252.642 113.447 249.678 110.952 247.274C108.685 245.09 106.18 243.273 103.152 242.209C102.033 241.815 101.106 240.915 100.014 240.42C96.032 238.603 91.8571 237.429 87.5629 236.612C87.462 236.502 87.3427 236.41 87.2051 236.337C82.0851 234.612 77.0568 232.611 71.9919 230.758C68.2849 229.4 65.2937 226.987 61.8895 225.225C61.7611 225.106 61.6234 224.986 61.495 224.867C61.1922 224.665 60.7242 224.748 60.5499 224.317C60.4306 224.206 60.3021 224.087 60.1828 223.977C58.1275 222.592 56.3016 220.867 54.7142 219.059C52.7873 216.866 51.0623 214.407 49.8052 211.7C49.0712 210.122 48.4013 208.507 47.704 206.91C47.6306 206.782 47.5388 206.663 47.4287 206.553C47.0709 204.378 46.6488 202.203 46.3827 200.02C46.0065 196.964 46.5387 193.945 46.9241 190.917C47.4379 190.67 47.6214 190.229 47.6122 189.688C47.6856 187.807 48.9519 186.284 49.2272 184.467C49.3373 184.384 49.429 184.283 49.5116 184.164L49.5024 184.201Z" fill="#FEFFFF"/>
<path d="M145.021 213.168C145.012 202.47 144.489 191.78 143.837 181.099C143.709 178.989 143.874 176.934 145.076 175.016C146.094 173.401 146.994 171.713 148.251 170.263C150.774 167.336 153.985 165.593 157.812 165.455C164.179 165.216 170.391 163.923 176.686 163.179C187.55 161.886 198.34 162.189 209.012 164.758C212.443 165.583 215.655 166.997 218.829 168.547C219.94 169.089 220.399 169.722 220.224 171.034C218.334 184.852 220.004 198.46 222.876 211.975C224.399 219.16 226.61 226.152 229.381 232.942C230.005 234.474 229.721 235.373 228.583 236.493C221.876 243.081 213.755 246.724 204.598 248.329C198.377 249.421 192.119 249.348 185.852 249.036C182.421 248.861 179.007 248.458 175.585 248.1C173.52 247.889 173.502 247.843 173.484 249.862C173.401 258.193 173.328 266.515 173.282 274.847C173.282 276.379 173.172 277.902 172.97 279.416C171.988 286.647 165.611 291.895 158.903 291.666C155.371 291.546 151.847 291.308 148.563 289.987C146.443 289.133 144.755 287.537 143.599 285.491C142.562 283.646 142.149 281.664 142.121 279.554C142.048 273.351 142.69 267.194 143.25 261.028C144.388 248.54 145.021 236.034 145.03 223.491C145.03 220.05 145.03 216.609 145.03 213.177L145.021 213.168ZM189.1 188.532C184.806 188.458 180.558 188.862 176.355 189.688C173.805 190.193 173.786 190.193 173.86 192.716C173.997 197.597 174.218 202.479 174.291 207.369C174.355 211.333 174.3 215.306 174.199 219.279C174.172 220.527 174.566 221.096 175.805 221.234C177.319 221.399 178.815 221.738 180.329 221.913C186.1 222.564 191.89 222.995 197.68 222.151C202.212 221.491 206.185 219.848 208.801 215.747C210.81 212.581 212.021 209.177 212.296 205.452C212.599 201.295 211.379 197.432 208.635 194.459C205.864 191.459 202.167 189.697 198.001 189.064C195.037 188.614 192.073 188.578 189.1 188.532Z" fill="#FEFFFF"/>
<path d="M448.706 199.093C444.954 198.946 441.302 198.111 437.595 197.615C435.016 197.276 432.429 197.102 429.832 197.138C428.07 197.166 428.034 197.202 427.988 198.937C427.869 203.213 427.74 207.488 427.713 211.764C427.584 228.721 427.896 245.668 428.575 262.606C428.749 266.956 429.052 271.296 429.272 275.645C429.318 276.48 429.291 277.324 429.3 278.159C429.071 278.453 429.089 278.737 429.337 279.012C429.474 280.306 429.639 281.591 429.74 282.884C430.346 290.601 426.07 295.886 418.39 296.804C415.417 297.153 412.444 296.932 409.526 296.162C405.04 294.978 402.048 292.189 400.461 287.858C399.442 285.096 399.039 282.233 399.066 279.306C399.14 271.663 398.837 264.029 398.635 256.385C398.36 246.072 397.938 235.768 397.607 225.454C397.424 219.719 397.745 213.994 397.965 208.268C398.075 205.516 398.204 202.772 398.277 200.019C398.323 198.239 398.277 198.184 396.534 198.175C393.249 198.166 389.964 198.23 386.679 198.248C383.761 198.267 383.871 198.46 383.991 195.569C384.266 188.761 384.284 181.971 383.174 175.218C382.88 173.419 382.614 171.621 382.339 169.822C382.431 169.703 382.523 169.584 382.624 169.455C387.991 169.318 393.359 169.336 398.708 169.896C399.14 170.272 399.589 170.281 400.039 169.933C403.847 169.749 407.636 170.199 411.444 170.263C417.454 170.373 423.464 170.263 429.474 169.969C429.933 170.3 430.364 170.272 430.786 169.905C438.641 168.978 446.468 168.804 454.203 170.795C457.487 171.639 460.644 172.85 463.626 174.474C467.994 176.851 469.948 181.402 469.168 186.77C468.177 193.606 462.672 200.185 453.689 199.588C452.478 199.506 451.266 199.322 450.055 199.184C449.633 198.808 449.193 198.781 448.734 199.102L448.706 199.093Z" fill="#FEFFFF"/>
<path d="M370.31 150.453C371.154 150.728 371.383 151.517 371.659 152.205C373.264 156.114 375.127 159.895 376.402 163.959C377.816 168.483 378.898 173.043 379.669 177.695C379.742 178.145 379.724 178.604 379.742 179.062C379.504 179.374 379.541 179.659 379.816 179.934C380.458 182.485 380.32 185.1 380.403 187.687C380.632 194.744 380.256 201.79 378.467 208.626C377.623 211.874 377.247 215.26 375.879 218.398C375.035 220.325 374.558 222.408 373.907 224.418C372.65 228.271 370.466 231.694 368.796 235.355C363.281 247.421 355.445 257.927 346.903 267.947C344.893 270.305 343.031 272.828 340.498 274.727C339.388 275.562 338.801 276.884 337.837 277.847C336.121 279.572 334.534 281.426 332.488 282.83C330.983 283.866 330.01 285.518 328.671 286.738C321.34 293.437 313.705 299.768 305.557 305.447C304.869 305.925 304.181 306.429 303.438 306.815C301.309 307.916 299.327 307.466 297.373 306.246C291.913 302.832 286.821 298.933 281.793 294.941C279.058 292.776 276.388 290.519 273.856 288.17C271.305 285.812 268.873 283.252 266.451 280.719C258.991 272.938 252.348 264.515 246.375 255.541C243.971 251.926 242.062 248.036 239.768 244.384C237.74 241.154 236.171 237.676 234.722 234.235C232.382 228.703 230.134 223.078 228.62 217.224C228.051 215.04 227.023 213.04 226.647 210.783C225.729 205.378 224.573 200.029 223.894 194.578C222.133 180.521 224.087 166.969 229.602 153.967C233.143 145.608 238.098 138.112 244.347 131.505C257.422 117.677 273.434 109.603 292.289 107.135C292.739 107.08 293.207 107.116 293.657 107.107C293.959 107.346 294.253 107.318 294.519 107.052C304.319 105.813 313.889 107.034 323.257 109.933C334.47 113.402 344.315 119.274 352.922 127.22C359.4 133.212 364.933 139.983 369.291 147.691C369.778 148.553 370.365 149.379 370.328 150.434L370.337 150.471L370.31 150.453ZM369.374 184.036C369.622 183.733 369.603 183.439 369.337 183.155C368.677 178.163 367.814 173.199 366.318 168.382C362.566 156.325 356.262 145.801 347.169 137.02C332.589 122.944 315.357 116.035 294.914 117.934C284.298 118.916 274.608 122.577 265.478 127.945C259.707 131.331 254.963 135.891 250.696 140.928C236.548 157.61 231.859 176.833 235.511 198.285C238.667 216.866 245.512 233.951 255.807 249.696C256.798 251.22 257.431 252.954 258.661 254.339C259.872 255.706 260.955 257.184 262.083 258.615C266.267 263.955 270.516 269.24 275.37 274.003C278.627 277.196 281.829 280.444 285.316 283.398C289.518 286.959 293.785 290.436 298.309 293.574C301.245 295.611 300.419 295.556 303.135 293.565C311.072 287.729 318.513 281.306 325.579 274.461C327.928 272.186 330.111 269.727 332.378 267.387C335.14 264.543 337.828 261.634 340.37 258.606C349.197 248.063 356.785 236.722 362.171 224.023C366.447 213.957 369.172 203.515 369.401 192.514C369.457 189.688 369.392 186.862 369.374 184.036Z" fill="#FEFFFF"/>
<path d="M301.263 135.57C329.873 135.671 352.637 158.536 352.775 186.788C352.913 215.398 329.955 238.456 301.337 238.52C272.984 238.585 250.082 215.545 249.898 187.201C249.724 159.867 271.736 135.781 301.263 135.57ZM260.945 187.118C260.964 209.434 279.122 227.565 301.401 227.519C323.679 227.473 341.774 209.305 341.755 186.99C341.737 164.712 323.542 146.562 301.272 146.59C278.985 146.617 260.927 164.776 260.945 187.128V187.118Z" fill="#FDFFFE"/>
</g>
<defs>
<clipPath id="clip0_448_120">
<rect width="512" height="512" fill="white"/>
</clipPath>
</defs>
</svg>
